<svg xmlns="http://www.w3.org/2000/svg" width="24" height="24">
    <path fill="#FFF" fill-rule="evenodd" d="M20.485 3.518C18.257 1.292 15.307.049 12.162.008c-.054-.005-.109-.009-.162-.009-.054 0-.108.004-.163.009-3.144.041-6.094 1.284-8.322 3.51C1.248 5.783 0 8.795 0 11.999c0 3.204 1.248 6.216 3.515 8.481 2.228 2.227 5.178 3.469 8.322 3.51.055.006.109.009.163.009.053 0 .108-.003.162-.009 3.145-.041 6.095-1.283 8.323-3.51C22.752 18.215 24 15.203 24 11.999c0-3.204-1.248-6.216-3.515-8.481zM4.523 4.527c1.275-1.275 2.818-2.183 4.502-2.673-.379.437-.748.939-1.091 1.495-.439.711-.818 1.48-1.135 2.294H3.552c.295-.391.619-.764.971-1.116zm-1.88 2.542h3.675c-.382 1.336-.608 2.761-.664 4.217H1.451c.098-1.491.506-2.921 1.192-4.217zm0 9.861c-.686-1.297-1.094-2.727-1.192-4.218h4.203c.056 1.457.282 2.881.664 4.218H2.643zm1.88 2.541c-.352-.352-.676-.725-.971-1.116h3.247c.317.814.696 1.584 1.135 2.294.343.556.712 1.059 1.091 1.495-1.684-.49-3.227-1.398-4.502-2.673zm6.764 2.809c-.595-.389-1.393-1.169-2.139-2.38-.3-.485-.569-1.002-.807-1.545h2.946v3.925zm0-5.35h-3.48c-.417-1.321-.665-2.749-.725-4.218h4.205v4.218zm0-5.644H7.082c.06-1.468.308-2.896.725-4.217h3.48v4.217zm0-5.643H8.341c.238-.543.507-1.06.807-1.545.746-1.21 1.544-1.991 2.139-2.38v3.925zm10.07 1.426c.686 1.296 1.093 2.726 1.192 4.217h-4.204c-.055-1.456-.281-2.881-.664-4.217h3.676zm-1.881-2.542c.353.352.677.725.972 1.116h-3.247c-.317-.814-.697-1.583-1.135-2.294-.343-.556-.712-1.058-1.092-1.495 1.684.49 3.228 1.398 4.502 2.673zm-6.763-2.809c.594.389 1.392 1.17 2.139 2.38.3.485.569 1.002.807 1.545h-2.946V1.718zm0 5.351h3.48c.417 1.321.664 2.749.725 4.217h-4.205V7.069zm4.205 5.643c-.061 1.469-.308 2.897-.725 4.218h-3.48v-4.218h4.205zm-4.205 9.568v-3.925h2.945c-.237.543-.507 1.06-.806 1.545-.747 1.211-1.545 1.991-2.139 2.38zm6.763-2.809c-1.274 1.275-2.818 2.183-4.502 2.674.38-.437.749-.94 1.092-1.496.438-.71.818-1.48 1.135-2.294h3.247c-.295.391-.619.765-.972 1.116zm1.881-2.541h-3.676c.383-1.337.609-2.761.664-4.218h4.204c-.099 1.491-.506 2.921-1.192 4.218z"/>
</svg>
